<?xml version="1.0" standalone="no"?>
<!DOCTYPE svg PUBLIC "-//W3C//DTD SVG 20010904//EN"
 "http://www.w3.org/TR/2001/REC-SVG-20010904/DTD/svg10.dtd">
<svg version="1.0" xmlns="http://www.w3.org/2000/svg"
 width="1280.000000pt" height="640.000000pt" viewBox="0 0 1280.000000 640.000000"
 preserveAspectRatio="xMidYMid meet">
<metadata>
Created by potrace 1.15, written by Peter Selinger 2001-2017
</metadata>
<g transform="translate(0.000000,640.000000) scale(0.100000,-0.100000)"
fill="#000000" stroke="none">
<path d="M9079 6154 l-24 -26 -3 -694 -2 -694 -4481 0 c-4886 0 -4536 4 -4559
-55 -13 -35 -14 -2934 0 -2969 5 -14 23 -32 39 -41 27 -13 486 -15 4515 -15
l4486 0 2 -694 3 -694 24 -26 c29 -31 84 -35 121 -9 14 10 747 609 1630 1332
883 723 1680 1376 1772 1450 91 75 174 150 183 167 19 32 16 65 -8 95 -11 15
-3526 2846 -3577 2882 -37 26 -92 22 -121 -9z"/>
</g>
</svg>
